<svg width="220" height="219" viewBox="0 0 220 219" fill="none" xmlns="http://www.w3.org/2000/svg">
<path d="M219.596 109.032C219.591 87.4677 213.148 66.3892 201.08 48.4615C189.012 30.5338 171.861 16.5622 151.797 8.31326C131.732 0.0643633 109.655 -2.09133 88.3572 2.11878C67.0591 6.32888 47.4964 16.7157 32.1429 31.9658C16.7894 47.2159 6.33463 66.6445 2.10052 87.7947C-2.13359 108.945 0.0431759 130.867 8.35553 150.789C16.6679 170.71 30.7425 187.737 48.7997 199.716C66.8569 211.695 88.0857 218.088 109.802 218.086C138.92 218.085 166.846 206.597 187.436 186.151C208.026 165.706 219.594 137.976 219.596 109.061" fill="white"/>
<path d="M148.104 51.2418H77.2183V165.947H148.104V51.2418Z" fill="#0F2D69"/>
<path d="M147.79 55.538H72.0093V162.955H147.79V55.538Z" fill="#0F2D69"/>
<path d="M106.701 104.867V100.05H106.81C109.354 100.064 111.868 99.4966 114.156 98.3924C116.445 97.2882 118.447 95.6764 120.008 93.6815C122.42 90.8413 123.756 87.2538 123.787 83.5389H106.825V78.7936H123.605C123.227 75.5778 121.965 72.5273 119.957 69.9768C116.105 65.2242 110.655 64.4346 107.058 64.4346H97.4788V150.647H106.825V118.48H119.023V150.625H129.602V135.65C129.602 115.734 123.189 104.867 106.701 104.867Z" fill="white"/>
<path d="M106.701 104.867V100.05H106.81C109.354 100.064 111.868 99.4966 114.156 98.3924C116.445 97.2882 118.447 95.6764 120.008 93.6815C122.42 90.8413 123.756 87.2538 123.787 83.5389H106.825V78.7936H123.605C123.227 75.5778 121.965 72.5273 119.957 69.9768C116.105 65.2242 110.655 64.4346 107.058 64.4346H97.4788V150.647H106.825V118.48H119.023V150.625H129.602V135.65C129.602 115.734 123.189 104.867 106.701 104.867Z" stroke="#0F2D69" stroke-miterlimit="10"/>
<path d="M142.88 155.921H84.2587V59.6385H110.268C120.103 59.6385 124.218 61.3555 128.872 64.9272C135.65 70.2013 136.715 77.8517 136.715 81.6842C136.779 86.7588 134.985 91.6839 131.667 95.5433C129.167 98.6551 125.921 101.094 122.226 102.636C137.131 107.867 142.88 119.755 142.88 137.411V155.921ZM109.838 37.2234C95.5163 37.2234 81.5165 41.4405 69.6086 49.3413C57.7008 57.2422 48.4198 68.4721 42.9392 81.6108C37.4586 94.7495 36.0247 109.207 38.8186 123.155C41.6126 137.103 48.509 149.915 58.6358 159.971C68.7626 170.027 81.6649 176.875 95.7111 179.649C109.757 182.424 124.317 181 137.548 175.558C150.779 170.115 162.088 160.899 170.045 149.075C178.001 137.25 182.248 123.348 182.248 109.127C182.244 90.0583 174.614 71.7715 161.035 58.2878C147.457 44.804 129.041 37.2272 109.838 37.2234Z" fill="white"/>
<path d="M86.6445 187.928C84.6455 187.348 83.2009 187.783 82.7559 189.319C82.3473 190.71 83.2228 191.862 85.5283 192.528L88.9865 193.528L90.3143 188.986L86.6445 187.928ZM85.4553 195.173C83.573 194.629 82.0993 194.999 81.6397 196.556C81.2603 197.86 82.0701 198.969 83.9524 199.505L86.9802 200.382L88.2642 195.984L85.4553 195.173ZM89.1032 203.685L82.7559 202.084C81.9509 201.889 81.1925 201.539 80.524 201.053C79.8555 200.567 79.29 199.955 78.86 199.251C78.595 198.783 78.4315 198.264 78.3799 197.729C78.3284 197.194 78.39 196.654 78.5608 196.143C78.7724 195.358 79.214 194.653 79.8297 194.118C80.4455 193.583 81.2074 193.241 82.019 193.137C80.2607 191.912 79.2247 190.413 79.896 188.116C80.7642 185.16 83.6824 184.284 87.396 185.356L93.9184 187.24L89.1032 203.685Z" fill="#0F2D69"/>
<path d="M67.7777 186.421C65.7933 185.262 65.1512 183.769 66.0559 182.241C67.0481 180.567 68.697 180.357 70.6377 181.516L72.9504 182.864L70.0321 187.769L67.7777 186.421ZM71.9801 179.133C68.5146 177.112 65.2315 177.684 63.4586 180.698C61.6858 183.712 62.9698 186.667 66.3259 188.667L68.697 190.051L65.5306 195.397L68.1352 196.919L76.9339 182.067L71.9801 179.133Z" fill="#0F2D69"/>
<path d="M61.0141 172.427L51.0315 186.526L53.5084 188.256L63.491 174.157L61.0141 172.427Z" fill="#0F2D69"/>
<path d="M15.8101 100.376C15.6058 102.824 16.7075 103.657 18.0718 103.766C19.8446 103.911 20.866 102.44 20.9901 100.694L21.1506 98.731L16.0435 98.318C15.9487 99.1222 15.8684 99.8105 15.8247 100.376H15.8101ZM30.2484 99.5207L24.0251 98.9628L23.85 101.071L27.9283 104.462C29.9493 106.157 30.3359 108.193 29.672 109.598L27.0455 109.642C27.1654 109.096 27.1344 108.529 26.9559 107.999C26.7774 107.47 26.4579 106.999 26.0314 106.635L23.011 104.041C22.5692 105.016 21.8237 105.824 20.8845 106.345C19.9452 106.867 18.862 107.075 17.7945 106.939C14.8033 106.7 12.5124 104.99 12.8917 100.303C12.9355 99.8105 13.3441 96.0432 13.5119 95.0869L30.6934 96.4707L30.2484 99.5207Z" fill="#0F2D69"/>
<path d="M43.6944 162.883C44.6674 162.671 45.6798 162.718 46.6283 163.021C47.5767 163.324 48.4273 163.871 49.0932 164.607C49.6303 165.192 50.0438 165.877 50.3092 166.623C50.5746 167.369 50.6864 168.161 50.6381 168.951C50.5898 169.74 50.3823 170.512 50.028 171.221C49.6736 171.93 49.1796 172.561 48.5752 173.076C46.0582 175.38 42.4103 175.482 40.0683 172.975C39.4004 172.273 38.9239 171.414 38.6839 170.478C38.4438 169.543 38.4482 168.562 38.6967 167.628L35.6471 166.991C35.3249 168.502 35.3996 170.07 35.8642 171.545C36.3288 173.019 37.1676 174.35 38.2999 175.41C39.4322 176.469 40.8199 177.222 42.3297 177.595C43.8395 177.968 45.4206 177.949 46.9208 177.54C48.4211 177.13 49.7901 176.345 50.8963 175.258C52.0024 174.172 52.8085 172.821 53.237 171.336C53.6655 169.851 53.702 168.281 53.343 166.778C52.984 165.275 52.2416 163.889 51.1871 162.753C50.2043 161.659 48.9653 160.822 47.5796 160.317C46.1939 159.811 44.7041 159.653 43.242 159.855L43.6944 162.883Z" fill="#0F2D69"/>
<path d="M24.5648 125.616L17.269 123.805L23.5945 119.806C23.7185 120.784 23.8571 121.755 24.0103 122.704C24.1635 123.653 24.3386 124.631 24.5283 125.602L24.5648 125.616ZM13.4387 122.928L13.8911 125.703L32.5901 130.477L31.7803 127.348L27.4393 126.283C27.1621 124.957 26.914 123.617 26.7097 122.283C26.5054 120.95 26.3085 119.588 26.1553 118.241L29.9636 115.937L29.7375 112.619L13.4387 122.928Z" fill="#0F2D69"/>
<path d="M32.1013 137.816C32.9038 139.951 33.7915 142.05 34.7642 144.112L21.7632 150.451C22.2009 151.364 22.646 152.269 23.1129 153.175L36.1066 146.829C37.1426 148.823 38.2565 150.775 39.4481 152.682L26.4252 159.094C26.9505 159.956 27.4831 160.811 28.0375 161.659L41.1699 155.269L43.7307 154.023C39.4304 147.77 36.0523 140.939 33.6991 133.737L31.1382 134.991L18.0059 141.381C18.3415 142.33 18.699 143.271 19.0638 144.213L32.1013 137.816Z" fill="#0F2D69"/>
<path d="M195.249 83.8648C196.006 83.6183 196.704 83.2234 197.304 82.7035C197.903 82.1835 198.391 81.5493 198.739 80.8383C199.087 80.1273 199.287 79.3542 199.328 78.5648C199.369 77.7755 199.25 76.986 198.977 76.2433C197.781 73.0339 194.359 71.7444 191.156 72.9253C190.4 73.1727 189.701 73.5683 189.101 74.0888C188.501 74.6093 188.013 75.244 187.664 75.9553C187.316 76.6667 187.115 77.4403 187.073 78.2302C187.031 79.0201 187.15 79.8103 187.421 80.554C188.625 83.7634 192.039 85.0529 195.249 83.8648ZM190.04 69.9549C191.719 69.3154 193.552 69.1862 195.305 69.5836C197.059 69.981 198.654 70.8872 199.887 72.1869C201.121 73.4865 201.937 75.1211 202.233 76.8827C202.528 78.6442 202.29 80.4534 201.547 82.08C200.805 83.7067 199.592 85.0774 198.064 86.018C196.535 86.9586 194.759 87.4265 192.962 87.3624C191.164 87.2982 189.427 86.7048 187.97 85.6576C186.513 84.6104 185.403 83.1567 184.78 81.4813C184.346 80.383 184.138 79.2095 184.168 78.03C184.199 76.8506 184.467 75.6892 184.958 74.6146C185.448 73.5399 186.15 72.5738 187.023 71.7735C187.896 70.9731 188.922 70.3548 190.04 69.9549Z" fill="#0F2D69"/>
<path d="M196.387 130.216C197.166 130.384 197.971 130.394 198.754 130.246C199.537 130.098 200.282 129.796 200.945 129.357C201.608 128.917 202.175 128.35 202.613 127.689C203.051 127.028 203.35 126.286 203.493 125.507C204.092 122.139 201.801 119.313 198.43 118.719C197.651 118.553 196.847 118.544 196.064 118.692C195.282 118.84 194.537 119.142 193.874 119.581C193.212 120.021 192.644 120.587 192.206 121.248C191.768 121.909 191.468 122.65 191.324 123.428C190.726 126.797 193.024 129.622 196.387 130.216ZM198.985 115.597C200.76 115.888 202.407 116.696 203.718 117.92C205.029 119.143 205.944 120.726 206.346 122.467C206.748 124.208 206.62 126.029 205.978 127.697C205.335 129.366 204.208 130.807 202.738 131.837C201.269 132.868 199.524 133.441 197.726 133.484C195.927 133.527 194.156 133.038 192.639 132.079C191.121 131.12 189.925 129.734 189.202 128.099C188.48 126.463 188.263 124.65 188.581 122.892C188.766 121.728 189.185 120.612 189.812 119.611C190.439 118.61 191.262 117.744 192.232 117.064C193.202 116.384 194.299 115.903 195.459 115.651C196.618 115.399 197.817 115.381 198.985 115.597Z" fill="#0F2D69"/>
<path d="M182.496 66.0284L184.313 60.4282L194.841 61.9134L192.973 58.9068L183.715 57.8636L182.752 56.4146L188.778 52.488L186.939 50.061L172.596 59.4284L174.391 61.8772L180.388 57.9722L181.533 59.711L179.746 64.7823C178.797 67.3759 178.557 69.8898 180.614 71.6068L182.803 70.1579C181.847 69.3392 181.84 67.9844 182.467 66.0139" fill="#0F2D69"/>
<path d="M151.197 182.306L156.786 184.255L155.013 194.673L158.085 192.898L159.383 183.733L160.842 182.813L164.643 188.906L167.131 187.145L158.099 172.656L155.582 174.373L159.354 180.43L157.574 181.524L152.467 179.611C149.877 178.597 147.36 178.292 145.572 180.292L146.966 182.531C147.819 181.603 149.154 181.632 151.146 182.306" fill="#0F2D69"/>
<path d="M186.523 168.555L184.634 170.874L175.405 162.455L178.221 177.814L176.076 179.857L163.381 168.28L165.563 166.223L174.872 174.721L172.041 159.217L173.822 156.971L186.523 168.555Z" fill="#0F2D69"/>
<path d="M146.871 198.418L144.077 199.505L140.239 187.66L135.037 202.396L132.163 203.12L126.888 186.827L129.806 186.102L133.673 198.056L138.926 183.197L141.596 182.118L146.871 198.418Z" fill="#0F2D69"/>
<path d="M184.853 153.132C186.918 154.023 189.384 155.08 191.499 156.153V156.073C189.872 154.624 181.117 145.097 181.117 145.097L182.256 142.808C182.256 142.808 194.928 144.322 197.095 144.836V144.786C195.096 143.713 192.667 142.402 190.595 141.236L184.503 137.794L185.597 134.897L200.685 143.655L199.021 147.684C199.021 147.684 187.268 146.416 185.327 145.974V146.053C186.786 147.321 194.899 156.051 194.899 156.051L192.71 159.753L176.66 153.066L178.36 150.328L184.853 153.132Z" fill="#0F2D69"/>
<path d="M207.025 104.947L199.846 105.613H199.802C199.736 103.976 199.627 102.324 199.473 100.694C199.32 99.0642 199.116 97.4196 198.875 95.7968H198.919L206.149 95.123L205.66 92.131L188.537 93.7248L189.019 96.7169L196.103 96.0576H196.169C196.417 97.6732 196.621 99.3177 196.774 100.955C196.927 102.592 197.037 104.237 197.095 105.874H197.037L189.96 106.533L190.04 109.569L207.178 107.975L207.025 104.947Z" fill="#0F2D69"/>
<path d="M175.47 36.9118C174.43 35.933 173.167 35.2182 171.789 34.8285C170.411 34.4387 168.958 34.3854 167.555 34.6732L168.226 37.6942C169.35 37.413 170.533 37.4706 171.624 37.8597C172.715 38.2489 173.665 38.9518 174.352 39.8791C175.039 40.8063 175.433 41.9157 175.483 43.0659C175.532 44.2161 175.236 45.3549 174.631 46.3372C173.347 45.0331 172.02 43.7653 170.67 42.541C170.101 42.0338 169.524 41.5267 168.955 41.034L167.182 43.0698C167.737 43.548 168.299 44.0406 168.846 44.5188C170.203 45.7431 171.531 47.0182 172.808 48.3222C171.721 49.1632 170.37 49.5954 168.993 49.5424C167.617 49.4893 166.303 48.9545 165.286 48.0324C164.537 47.3788 163.976 46.5394 163.66 45.6C163.345 44.6607 163.287 43.655 163.491 42.6859L160.448 42.2656C160.257 43.7185 160.429 45.1959 160.949 46.567C161.47 47.9381 162.323 49.1606 163.432 50.1262C164.3 50.9496 165.326 51.5918 166.448 52.015C167.57 52.4382 168.766 52.6336 169.966 52.5899C171.166 52.5461 172.344 52.264 173.432 51.7603C174.52 51.2565 175.495 50.5413 176.3 49.6569C177.105 48.7724 177.723 47.7368 178.118 46.6111C178.513 45.4855 178.676 44.2927 178.599 43.1031C178.521 41.9136 178.205 40.7516 177.667 39.6857C177.13 38.6198 176.383 37.6716 175.47 36.8973" fill="#0F2D69"/>
<path d="M87.9869 23.3859C87.77 22.6245 87.4013 21.9141 86.9025 21.2969C86.4038 20.6798 85.7852 20.1685 85.0835 19.7934C84.3819 19.4184 83.6114 19.1872 82.818 19.1136C82.0246 19.04 81.2244 19.1255 80.4649 19.3651C77.1891 20.4228 75.7518 23.7627 76.817 26.9938C77.0347 27.7547 77.404 28.4644 77.9029 29.0811C78.4019 29.6977 79.0204 30.2086 79.7219 30.5835C80.4233 30.9584 81.1933 31.1898 81.9864 31.2638C82.7795 31.3379 83.5795 31.2531 84.339 31.0146C87.6148 29.9569 89.052 26.6171 87.9869 23.3859ZM73.7382 27.9718C73.1634 26.2777 73.109 24.4521 73.5819 22.7271C74.0547 21.0022 75.0335 19.4559 76.3938 18.2848C77.7541 17.1137 79.4343 16.3708 81.2209 16.1506C83.0075 15.9303 84.8197 16.2427 86.4271 17.0479C88.0344 17.8531 89.3643 19.1148 90.2476 20.6726C91.1309 22.2303 91.5277 24.0137 91.3875 25.796C91.2474 27.5783 90.5765 29.2789 89.4604 30.6816C88.3443 32.0843 86.8333 33.1257 85.1196 33.6734C83.9961 34.0578 82.8064 34.2147 81.6208 34.1349C80.4352 34.055 79.2777 33.7401 78.2168 33.2086C77.1558 32.6771 76.2128 31.9398 75.4436 31.0404C74.6744 30.1409 74.0945 29.0975 73.7382 27.9718Z" fill="#0F2D69"/>
<path d="M68.8938 35.5208L63.3126 33.5357L65.1511 23.1323L62.065 24.8928L60.7153 34.0718L59.2124 34.9847L55.4478 28.8774L52.9453 30.6234L61.8972 45.1563L64.4215 43.461L60.6861 37.3827L62.4736 36.296L67.5806 38.2376C70.1633 39.2663 72.6877 39.5851 74.4824 37.6L73.0962 35.3469C72.2426 36.2743 70.9075 36.2308 68.9231 35.5498" fill="#0F2D69"/>
<path d="M52.9161 49.2351C51.243 50.7999 49.6428 52.43 48.1155 54.1253L37.1719 44.7071C36.4934 45.4316 35.8294 46.2213 35.1728 46.9965L46.1165 56.4146C44.6573 58.1388 43.2833 59.9186 41.9944 61.7539L30.9632 52.3358C30.3649 53.1472 29.7885 53.9731 29.2122 54.8063L40.258 64.2968L42.4467 66.1442C46.5628 59.7769 51.5718 54.0247 57.3228 49.0612L55.134 47.2066L44.0955 37.7305C43.366 38.4042 42.6364 39.0997 41.9068 39.8025L52.9161 49.2351Z" fill="#0F2D69"/>
<path d="M122.926 23.7555L127.092 17.583L128.748 24.8277C127.778 24.6176 126.808 24.422 125.83 24.2409C124.852 24.0597 123.889 23.8931 122.912 23.7482L122.926 23.7555ZM129.186 14.2866L126.414 13.765L115.565 29.6309L118.804 29.928L121.277 26.2332C122.627 26.4143 123.984 26.6316 125.319 26.8852C126.654 27.1387 128.004 27.4213 129.339 27.7328L130.259 32.0797L133.483 32.9852L129.186 14.2866Z" fill="#0F2D69"/>
<path d="M105.701 12.4319L99.1349 12.9246L98.7044 12.9753L98.9087 15.6631L98.9598 16.3876C99.7477 26.6678 98.2302 27.8994 96.4427 28.0298C96.1078 28.0542 95.771 28.0298 95.4432 27.9574L95.3411 30.4568C96.0427 30.5696 96.7543 30.6085 97.4642 30.5727C100.871 30.3119 102.71 27.9791 101.842 17.0541L101.71 15.4168L102.578 15.3443C104.286 15.2139 106 15.1342 107.686 15.0907L108.794 29.515L111.83 29.2832L110.742 15.0763L110.538 12.3812C108.904 12.3812 107.255 12.3812 105.621 12.4682" fill="#0F2D69"/>
<path d="M113.311 197.324C113.311 196.642 113.107 195.975 112.725 195.408C112.344 194.841 111.801 194.399 111.167 194.138C110.532 193.877 109.834 193.809 109.16 193.942C108.487 194.075 107.868 194.404 107.382 194.886C106.896 195.368 106.566 195.983 106.432 196.651C106.298 197.32 106.366 198.014 106.629 198.644C106.892 199.274 107.337 199.813 107.908 200.192C108.48 200.57 109.151 200.773 109.838 200.773C110.759 200.773 111.642 200.409 112.293 199.763C112.945 199.116 113.311 198.239 113.311 197.324Z" fill="#0F2D69"/>
<path d="M26.1334 79.4673C26.7708 79.72 27.4694 79.7795 28.1409 79.6383C28.8123 79.497 29.4266 79.1613 29.906 78.6736C30.3855 78.1859 30.7087 77.568 30.8347 76.8981C30.9608 76.2281 30.8841 75.536 30.6144 74.9093C30.3446 74.2826 29.8939 73.7493 29.3191 73.3768C28.7443 73.0043 28.0712 72.8093 27.3849 72.8163C26.6986 72.8234 26.0297 73.0323 25.4629 73.4166C24.896 73.8009 24.4565 74.3434 24.2 74.9756C24.0292 75.3965 23.9437 75.8467 23.9484 76.3005C23.9532 76.7543 24.0481 77.2027 24.2277 77.62C24.4073 78.0373 24.6681 78.4153 24.9951 78.7323C25.3222 79.0493 25.7089 79.2991 26.1334 79.4673Z" fill="#0F2D69"/>
<path d="M146.798 28.863C146.489 29.4716 146.368 30.1577 146.451 30.8346C146.533 31.5115 146.817 32.1487 147.264 32.6658C147.712 33.1829 148.304 33.5566 148.965 33.7396C149.627 33.9227 150.328 33.907 150.981 33.6944C151.633 33.4818 152.207 33.0819 152.631 32.5453C153.055 32.0087 153.309 31.3594 153.361 30.6795C153.413 29.9995 153.261 29.3196 152.924 28.7254C152.587 28.1313 152.08 27.6498 151.467 27.3416C150.645 26.9299 149.691 26.8589 148.816 27.1441C147.941 27.4292 147.215 28.0474 146.798 28.863Z" fill="#0F2D69"/>
</svg>
